# xmcd
#
# Track frame offsets:
#	150
#	16957
#	33069
#	58722
#	79182
#	97449
#	117469
#	137016
#	151415
#	168620
#	184447
#	202161
#	216921
#	237570
#	257070
#	273685
#	291591
#	306901
#	326781
#
# Disc length: 4538 seconds
#
# Revision: 0
# Processed by: cddbd v1.5.2PL0 Copyright (c) Steve Scherf et al.
# Submitted via: EasyCDDAExtractor 16.0.9.1
#
DISCID=3611b813
DTITLE=Hott Urban Volume 9 CAN
DYEAR=2016
DGENRE=blues
TTITLE0=R. Kelly - Wake Up Everybody
TTITLE1=Young Thug - Best Friend
TTITLE2=Babyface - Exceptional
TTITLE3=Majid Jordan - Something About You
TTITLE4=Mack Wilds - Love in the 90z
TTITLE5=A$AP Ferg ft. Future - New Level
TTITLE6=Treasure Davis - The One
TTITLE7=Pusha T - Untouchable
TTITLE8=Kranium ft. Ty Dolla $ign - Nobody Has to Know
TTITLE9=G-Eazy ft. Starrah - Order More
TTITLE10=The Weeknd - In The Night
TTITLE11=Bryson Tiller - Exchange
TTITLE12=French Montana ft. Chris Brown and Migos - Moses
TTITLE13=Chinx ft. Jeremih - Thug Love
TTITLE14=Uncle Murda and Future - Right Now
TTITLE15=Luke Christopher - They Know
TTITLE16=Melanie Fiona - I Tried
TTITLE17=Young Dro ft. Rich Homie Quan - Ugh [Remix]
TTITLE18=Noel Scales - Good Girl
EXTD=
EXTT0=
EXTT1=
EXTT2=
EXTT3=
EXTT4=
EXTT5=
EXTT6=
EXTT7=
EXTT8=
EXTT9=
EXTT10=
EXTT11=
EXTT12=
EXTT13=
EXTT14=
EXTT15=
EXTT16=
EXTT17=
EXTT18=
PLAYORDER=
